<?xml version="1.0" standalone="no"?>
<!DOCTYPE svg PUBLIC "-//W3C//DTD SVG 20010904//EN"
 "http://www.w3.org/TR/2001/REC-SVG-20010904/DTD/svg10.dtd">
<svg version="1.0" xmlns="http://www.w3.org/2000/svg"
 width="927.000000pt" height="99.000000pt" viewBox="165.000000 372.000000 927.000000 80.000000"
 preserveAspectRatio="xMidYMid meet">

<g transform="translate(0.000000,832.000000) scale(0.100000,-0.100000)"
fill="#000000" stroke="none">
<path d="M3123 4613 c-13 -2 -23 -9 -23 -15 0 -5 6 -8 14 -5 8 3 41 9 74 13
149 16 191 -56 117 -203 -61 -122 -231 -301 -404 -423 -156 -111 -158 -112
-131 -105 47 14 285 202 382 303 149 154 220 281 204 366 -11 56 -37 71 -130
73 -44 0 -91 -1 -103 -4z"/>
<path d="M3008 4598 c-4 -9 -29 -28 -55 -42 -26 -14 -40 -25 -31 -26 9 0 20 5
23 10 11 18 47 11 52 -10 6 -23 23 -27 23 -5 0 8 12 21 26 28 l27 14 -26 7
c-14 3 -27 14 -29 24 -3 16 -4 16 -10 0z"/>
<path d="M2670 4528 c-55 -155 -132 -229 -282 -273 -86 -24 -85 -52 2 -75 114
-31 198 -101 249 -210 38 -79 40 -124 9 -144 -13 -7 -67 -33 -120 -57 -99 -45
-106 -57 -30 -58 24 -1 32 3 32 17 0 12 26 28 88 55 48 22 94 42 102 46 8 5
18 23 21 40 18 85 91 206 152 251 23 17 79 42 125 56 106 33 106 48 2 84 -139
47 -210 111 -256 233 -46 120 -61 126 -94 35z"/>
<path d="M6197 4572 c-15 -17 -17 -61 -17 -423 0 -302 3 -408 12 -417 7 -7 37
-12 68 -12 31 0 61 5 68 12 17 17 17 829 0 846 -20 20 -112 15 -131 -6z"/>
<path d="M8620 4575 c-16 -20 -25 -808 -9 -837 8 -14 22 -18 74 -18 79 0 85 8
85 113 0 65 3 76 24 96 l24 22 92 -115 92 -116 63 0 c55 0 66 3 79 22 9 12 16
26 16 30 0 4 -35 49 -78 100 -43 51 -94 114 -115 139 l-37 47 95 103 c134 145
137 179 19 179 l-63 0 -102 -115 c-56 -64 -104 -114 -106 -111 -3 3 -5 100 -4
217 1 255 0 259 -83 259 -36 0 -58 -5 -66 -15z"/>
<path d="M4702 4507 c-6 -7 -12 -49 -14 -92 l-3 -80 -40 -3 c-46 -3 -55 -13
-55 -67 0 -54 10 -66 59 -72 l41 -6 0 -171 c0 -158 2 -175 23 -216 32 -65 89
-93 179 -87 40 3 78 11 94 22 24 15 26 21 20 58 -10 59 -20 67 -72 60 -35 -4
-49 -2 -64 12 -18 17 -20 31 -20 172 l0 153 53 0 c72 0 97 19 97 74 0 23 -5
47 -12 54 -7 7 -39 12 -75 12 l-63 0 0 76 c0 104 -7 114 -79 114 -36 0 -63 -5
-69 -13z"/>
<path d="M9979 4503 c-10 -11 -13 -39 -12 -88 l3 -72 -49 -7 c-54 -7 -61 -16
-61 -76 0 -45 26 -70 75 -70 l30 0 -3 -112 c-8 -235 12 -302 98 -345 72 -37
196 -27 220 17 10 20 3 77 -12 97 -6 7 -27 10 -62 6 -80 -8 -86 4 -86 189 l0
148 49 0 c92 0 113 21 101 100 l-5 35 -70 5 -70 5 -3 85 c-2 52 -8 87 -15 92
-24 15 -114 9 -128 -9z"/>
<path d="M3588 4340 c-26 -4 -72 -20 -103 -34 -51 -23 -55 -27 -55 -59 0 -37
30 -77 58 -77 9 0 41 9 70 20 29 11 76 20 108 20 45 0 59 -4 79 -25 25 -24 33
-59 16 -69 -5 -3 -58 -12 -119 -20 -158 -21 -216 -56 -243 -146 -26 -85 14
-179 91 -217 72 -37 208 -25 260 22 15 14 18 13 28 -10 10 -22 18 -25 66 -25
34 0 58 5 65 14 9 11 11 77 9 245 l-3 229 -30 43 c-17 25 -49 53 -75 66 -52
26 -150 36 -222 23z m182 -374 c0 -50 -14 -81 -51 -107 -42 -30 -118 -32 -148
-5 -31 28 -28 81 5 103 28 18 118 41 167 42 24 1 27 -2 27 -33z"/>
<path d="M4189 4337 c-120 -34 -180 -145 -135 -250 28 -66 63 -86 228 -132 75
-20 102 -48 80 -81 -30 -45 -126 -46 -211 -2 -60 31 -61 31 -82 12 -32 -28
-52 -80 -39 -103 29 -55 256 -91 357 -57 82 27 135 96 136 175 2 103 -67 164
-222 195 -76 16 -111 37 -111 66 0 50 98 67 179 30 60 -28 86 -26 110 9 31 44
27 77 -11 101 -68 42 -201 59 -279 37z"/>
<path d="M5690 4337 c-65 -15 -130 -46 -143 -68 -15 -24 22 -93 51 -97 12 -2
47 6 77 17 66 25 135 27 175 6 30 -16 50 -59 34 -75 -5 -5 -60 -16 -121 -24
-154 -20 -221 -58 -243 -137 -25 -87 2 -175 67 -219 32 -22 47 -25 122 -25 74
0 92 4 132 26 l47 26 10 -22 c13 -28 66 -40 110 -24 l32 11 0 226 c0 246 -6
279 -61 329 -57 52 -184 74 -289 50z m200 -368 c0 -45 -26 -92 -62 -114 -41
-24 -111 -24 -138 0 -26 23 -26 76 -1 99 18 17 122 44 174 45 24 1 27 -3 27
-30z"/>
<path d="M6738 4338 c-20 -5 -49 -21 -63 -34 -31 -29 -35 -29 -35 -6 0 29 -21
42 -70 42 -84 0 -81 14 -78 -320 l3 -295 65 -3 c52 -2 67 0 77 14 9 13 13 67
13 197 0 112 4 186 11 200 19 36 52 57 92 57 87 0 97 -26 97 -264 0 -128 4
-186 12 -194 16 -16 120 -16 136 0 8 8 12 65 12 191 0 199 9 235 61 262 43 23
77 18 110 -14 l29 -29 0 -199 c0 -141 3 -202 12 -211 16 -16 120 -16 136 0 15
15 17 426 2 480 -24 87 -91 132 -195 132 -75 0 -131 -21 -169 -63 l-19 -21
-33 34 c-48 49 -125 66 -206 44z"/>
<path d="M7658 4335 c-32 -8 -76 -24 -98 -35 -33 -17 -40 -26 -40 -49 0 -33
34 -81 58 -81 9 0 41 9 70 20 107 41 217 16 210 -49 -3 -23 -9 -27 -58 -34
-30 -5 -85 -13 -122 -18 -128 -20 -190 -85 -190 -199 0 -83 27 -127 99 -164
61 -31 205 -15 252 28 17 16 19 15 35 -9 14 -21 24 -25 69 -25 29 0 58 5 65
12 16 16 17 406 1 463 -26 94 -99 144 -221 151 -44 2 -96 -2 -130 -11z m202
-381 c0 -37 -5 -51 -28 -74 -69 -69 -192 -55 -192 22 0 47 29 67 135 91 11 3
35 5 53 6 32 1 32 0 32 -45z"/>
<path d="M9425 4341 c-140 -36 -215 -134 -223 -292 -10 -193 77 -310 252 -339
98 -16 245 21 295 74 26 27 18 57 -23 95 l-26 24 -64 -33 c-57 -29 -72 -32
-126 -28 -63 5 -98 23 -131 69 -10 13 -19 33 -21 44 -3 19 3 20 211 22 166 1
216 4 222 15 14 21 10 110 -6 165 -20 67 -80 134 -147 163 -57 24 -161 35
-213 21z m162 -151 c34 -20 68 -74 58 -90 -4 -6 -66 -10 -146 -10 -127 0 -139
2 -139 18 0 25 27 61 64 83 42 25 121 25 163 -1z"/>
<path d="M5126 4324 c-14 -13 -16 -54 -16 -298 0 -206 3 -285 12 -294 7 -7 37
-12 68 -12 31 0 61 5 68 12 8 8 12 60 12 167 0 132 3 162 20 198 21 48 63 78
120 87 24 4 43 14 50 25 14 27 13 104 -2 119 -29 29 -142 -3 -170 -48 -18 -28
-28 -25 -28 8 0 15 -5 33 -12 40 -18 18 -103 15 -122 -4z"/>
<path d="M8171 4326 c-8 -9 -11 -99 -9 -307 l3 -294 68 -3 c64 -3 68 -2 77 23
6 15 10 97 10 183 0 138 2 161 20 189 21 35 56 57 109 67 52 10 61 22 61 86 0
63 -6 70 -61 70 -38 0 -65 -14 -106 -53 l-33 -31 0 30 c0 17 -5 35 -12 42 -17
17 -113 15 -127 -2z"/>
<path d="M2312 4028 c-19 -19 -25 -21 -42 -10 -17 11 -20 10 -20 -7 0 -11 -9
-26 -20 -34 l-21 -14 21 -6 c12 -3 20 -13 20 -25 0 -30 17 -36 24 -8 3 14 17
29 33 34 16 6 22 11 16 11 -18 1 -16 32 3 59 19 28 15 28 -14 0z"/>
<path d="M2451 3812 c-41 -20 -64 -52 -52 -70 6 -11 20 -8 67 11 48 20 60 30
62 51 3 21 -1 26 -20 26 -13 0 -38 -8 -57 -18z"/>
<path d="M2328 3713 c12 -2 30 -2 40 0 9 3 -1 5 -23 4 -22 0 -30 -2 -17 -4z"/>
</g>
</svg>
